# xmcd
#
# Track frame offsets: 
#        150
#        12775
#        28867
#        43747
#        57785
#        72362
#        85935
#        99295
#        113675
#        127505
#        141745
#        156137
#        170820
#        185355
#        199550
#        214182
#        229425
#        243690
#        257847
#        271705
#        286505
#        299345
#        312092
#        324905
#
# Disc length: 4520 seconds
#
# Revision: 2
# Processed by: cddbd v1.5.2PL0 Copyright (c) Steve Scherf et al.
# Submitted via: ExactAudioCopyFreeDBPlugin 1.0
#
DISCID=5611a618
DTITLE=Various Artist - Texas Blues (1927-1935)
DYEAR=1993
DGENRE=Pre War Blues
TTITLE0=Coley Jones - Army Mule in No Man's Land
TTITLE1=Coley Jones - Traveling Man
TTITLE2=Coley Jones - Drunkard's Special
TTITLE3=Coley Jones - The Elder's He's My Man
TTITLE4="Bo" Jones - Back Door Blues
TTITLE5="Bo" Jones - Leavenworth Prison Blues
TTITLE6=Little Hat Jones - New Two Sixteen Blues
TTITLE7=Little Hat Jones - Two String Blues
TTITLE8=Little Hat Jones - Rolled from Side to Side Blues
TTITLE9=Little Hat Jones - Hurry Blues
TTITLE10=Little Hat Jones - Little Hat Blues
TTITLE11=Little Hat Jones - Corpus Blues
TTITLE12=Little Hat Jones - Kentucky Blues
TTITLE13=Little Hat Jones - Bye Bye Baby Blues
TTITLE14=Little Hat Jones - Cross the Water Blues
TTITLE15=Little Hat Jones - Cherry Street Blues
TTITLE16=Oak Cliff T-Bone - Trinity River Blues
TTITLE17=Oak Cliff T-Bone - Wichita Falls Blues
TTITLE18=Willie Reed - Dreaming Blues
TTITLE19=Willie Reed - Texas Blues
TTITLE20=Willie Reed - Leavin' Home
TTITLE21=Willie Reed - Goin' Back to My Baby
TTITLE22=Willie Reed - Some Low Down Groundhog Blues
TTITLE23=Willie Reed - All Worn Out and Dry Blues
EXTD=william hale
EXTT0=
EXTT1=
EXTT2=
EXTT3=
EXTT4=
EXTT5=
EXTT6=
EXTT7=
EXTT8=
EXTT9=
EXTT10=
EXTT11=
EXTT12=
EXTT13=
EXTT14=
EXTT15=
EXTT16=
EXTT17=
EXTT18=
EXTT19=
EXTT20=
EXTT21=
EXTT22=
EXTT23=
PLAYORDER=
